<svg width="40" height="40" viewBox="0 0 40 40" fill="none" xmlns="http://www.w3.org/2000/svg">
<path d="M29 14L16.625 26L11 20.5455" stroke="#2AC1BC" stroke-width="2" stroke-linecap="round" stroke-linejoin="round"/>
<path d="M10 2H30V-2H10V2ZM38 10V30H42V10H38ZM30 38H10V42H30V38ZM2 30V10H-2V30H2ZM10 38C5.58172 38 2 34.4183 2 30H-2C-2 36.6274 3.37258 42 10 42V38ZM38 30C38 34.4183 34.4183 38 30 38V42C36.6274 42 42 36.6274 42 30H38ZM30 2C34.4183 2 38 5.58172 38 10H42C42 3.37258 36.6274 -2 30 -2V2ZM10 -2C3.37258 -2 -2 3.37258 -2 10H2C2 5.58172 5.58172 2 10 2V-2Z" fill="#2AC1BC"/>
</svg>
